<svg width="30" height="30" viewBox="0 0 30 30" fill="none" xmlns="http://www.w3.org/2000/svg">
<rect x="0.5" y="0.5" width="29" height="29" rx="14.5" fill="#1F1507"/>
<rect x="0.5" y="0.5" width="29" height="29" rx="14.5" stroke="white"/>
<path d="M21.2125 15.8284V19.6495C21.2577 19.9659 21.2285 20.2886 21.1274 20.5919C21.0263 20.8951 20.856 21.1707 20.6299 21.3968C20.4039 21.6228 20.1283 21.7931 19.825 21.8942C19.5218 21.9954 19.1991 22.0245 18.8826 21.9794H16.809C16.7472 21.9794 16.688 21.9548 16.6443 21.9111C16.6006 21.8674 16.576 21.8082 16.576 21.7464V19.3559C16.5852 18.9772 16.4614 18.6072 16.2262 18.3103C15.991 18.0133 15.6591 17.8082 15.2884 17.7304C15.0653 17.6924 14.8367 17.7034 14.6183 17.7628C14.3999 17.8221 14.1971 17.9283 14.024 18.074C13.8509 18.2197 13.7116 18.4014 13.6158 18.6064C13.5201 18.8114 13.4701 19.0349 13.4695 19.2611V21.7464C13.4695 21.8082 13.445 21.8674 13.4013 21.9111C13.3576 21.9548 13.2983 21.9794 13.2365 21.9794H11.1163C10.7998 22.0245 10.4772 21.9954 10.1739 21.8942C9.87066 21.7931 9.59509 21.6228 9.36904 21.3968C9.14299 21.1707 8.97266 20.8951 8.87154 20.5919C8.77042 20.2886 8.74128 19.9659 8.78644 19.6495V15.8284C9.24804 16.0452 9.75207 16.1566 10.262 16.1546C11.1262 16.1528 11.9651 15.8632 12.6463 15.3314C13.3163 15.8644 14.1472 16.1546 15.0034 16.1546C15.8595 16.1546 16.6904 15.8644 17.3604 15.3314C18.0416 15.8632 18.8805 16.1528 19.7447 16.1546C20.2521 16.1558 20.7534 16.0444 21.2125 15.8284ZM11.5046 8C9.56307 8 9.26562 8.63684 8.94565 9.58277L8.13795 11.9694C7.95989 12.4585 7.9553 12.994 8.12496 13.4862C8.29462 13.9784 8.62823 14.3973 9.06991 14.6728C9.43244 14.8816 9.84369 14.9909 10.262 14.9897C10.7669 14.995 11.262 14.8501 11.6844 14.5736C12.1068 14.297 12.4375 13.9012 12.6346 13.4364C12.8343 13.8978 13.1646 14.2906 13.5848 14.5666C14.005 14.8426 14.4968 14.9897 14.9995 14.9897C15.5022 14.9897 15.994 14.8426 16.4141 14.5666C16.8343 14.2906 17.1646 13.8978 17.3643 13.4364C17.5614 13.9012 17.8922 14.297 18.3146 14.5736C18.737 14.8501 19.2321 14.995 19.7369 14.9897C20.1555 14.991 20.5671 14.8817 20.9298 14.6728C21.3715 14.3973 21.7051 13.9784 21.8748 13.4862C22.0444 12.994 22.0399 12.4585 21.8618 11.9694L21.0572 9.58277C20.7333 8.63684 20.4359 8 18.4943 8H11.5046Z" fill="white"/>
</svg>
